<mxfile host="app.diagrams.net" modified="2023-10-18T16:47:21.369Z" agent="Mozilla/5.0 (X11; Linux x86_64; rv:109.0) Gecko/20100101 Firefox/117.0" etag="Vm3Xj1Bal_CSLPu-BMfR" version="22.0.4" type="device">
  <diagram name="Page-1" id="Ptcj8Z4x8VKrDcPm_eJf">
    <mxGraphModel dx="1434" dy="759" grid="1" gridSize="10" guides="1" tooltips="1" connect="1" arrows="1" fold="1" page="1" pageScale="1" pageWidth="850" pageHeight="1100" math="0" shadow="0">
      <root>
        <mxCell id="0" />
        <mxCell id="1" parent="0" />
        <mxCell id="jhilTtokQsTLJwIkljfX-11" value="" style="group" vertex="1" connectable="0" parent="1">
          <mxGeometry x="510" y="400" width="120" height="160" as="geometry" />
        </mxCell>
        <mxCell id="jhilTtokQsTLJwIkljfX-3" value="&lt;div&gt;Event Management&lt;/div&gt;&lt;div&gt;Service&lt;br&gt;&lt;/div&gt;" style="rounded=0;whiteSpace=wrap;html=1;movable=0;resizable=0;rotatable=0;deletable=0;editable=0;locked=1;connectable=0;" vertex="1" parent="jhilTtokQsTLJwIkljfX-11">
          <mxGeometry width="120" height="60" as="geometry" />
        </mxCell>
        <mxCell id="jhilTtokQsTLJwIkljfX-10" value="Moduł odpowiedzialny za operacje związane z organizacją wydarzeń, zapisami, ustawienia przed rozgrywką, po rozgrywce." style="text;html=1;strokeColor=none;fillColor=none;align=center;verticalAlign=middle;whiteSpace=wrap;rounded=0;" vertex="1" parent="jhilTtokQsTLJwIkljfX-11">
          <mxGeometry y="70" width="120" height="90" as="geometry" />
        </mxCell>
        <mxCell id="jhilTtokQsTLJwIkljfX-13" value="" style="group" vertex="1" connectable="0" parent="1">
          <mxGeometry x="190" y="400" width="120" height="120" as="geometry" />
        </mxCell>
        <mxCell id="jhilTtokQsTLJwIkljfX-2" value="&lt;div&gt;In-Game&lt;/div&gt;&lt;div&gt;Service&lt;/div&gt;" style="rounded=0;whiteSpace=wrap;html=1;" vertex="1" parent="jhilTtokQsTLJwIkljfX-13">
          <mxGeometry width="120" height="60" as="geometry" />
        </mxCell>
        <mxCell id="jhilTtokQsTLJwIkljfX-12" value="Zarządzanie trwającą grą" style="text;html=1;strokeColor=none;fillColor=none;align=center;verticalAlign=middle;whiteSpace=wrap;rounded=0;" vertex="1" parent="jhilTtokQsTLJwIkljfX-13">
          <mxGeometry y="60" width="120" height="40" as="geometry" />
        </mxCell>
        <mxCell id="jhilTtokQsTLJwIkljfX-14" value="" style="group" vertex="1" connectable="0" parent="1">
          <mxGeometry x="340" y="580" width="120" height="130" as="geometry" />
        </mxCell>
        <mxCell id="jhilTtokQsTLJwIkljfX-1" value="&lt;div&gt;Users Service&lt;/div&gt;" style="rounded=0;whiteSpace=wrap;html=1;container=0;movable=1;resizable=1;rotatable=1;deletable=1;editable=1;locked=0;connectable=1;" vertex="1" parent="jhilTtokQsTLJwIkljfX-14">
          <mxGeometry width="120" height="60" as="geometry" />
        </mxCell>
        <mxCell id="jhilTtokQsTLJwIkljfX-8" value="Zarządza informacją przechowywaną na temat użytkowników" style="text;html=1;strokeColor=none;fillColor=none;align=center;verticalAlign=middle;whiteSpace=wrap;rounded=0;movable=1;resizable=1;rotatable=1;deletable=1;editable=1;locked=0;connectable=1;container=0;" vertex="1" parent="jhilTtokQsTLJwIkljfX-14">
          <mxGeometry y="60" width="120" height="70" as="geometry" />
        </mxCell>
        <mxCell id="jhilTtokQsTLJwIkljfX-17" value="Game App" style="rounded=0;whiteSpace=wrap;html=1;" vertex="1" parent="1">
          <mxGeometry x="190" y="270" width="120" height="60" as="geometry" />
        </mxCell>
        <mxCell id="jhilTtokQsTLJwIkljfX-18" value="Event Management App" style="rounded=0;whiteSpace=wrap;html=1;" vertex="1" parent="1">
          <mxGeometry x="510" y="270" width="120" height="60" as="geometry" />
        </mxCell>
        <mxCell id="jhilTtokQsTLJwIkljfX-20" value="" style="rounded=0;orthogonalLoop=1;jettySize=auto;html=1;endArrow=halfCircle;endFill=0;endSize=6;strokeWidth=1;sketch=0;" edge="1" parent="1">
          <mxGeometry relative="1" as="geometry">
            <mxPoint x="630" y="430" as="sourcePoint" />
            <mxPoint x="670" y="430" as="targetPoint" />
          </mxGeometry>
        </mxCell>
        <mxCell id="jhilTtokQsTLJwIkljfX-24" value="" style="ellipse;whiteSpace=wrap;html=1;align=center;aspect=fixed;fillColor=none;strokeColor=none;resizable=0;perimeter=centerPerimeter;rotatable=0;allowArrows=0;points=[];outlineConnect=1;" vertex="1" parent="1">
          <mxGeometry x="300" y="370" width="10" height="10" as="geometry" />
        </mxCell>
        <mxCell id="jhilTtokQsTLJwIkljfX-26" value="" style="rounded=0;orthogonalLoop=1;jettySize=auto;html=1;endArrow=halfCircle;endFill=0;endSize=6;strokeWidth=1;sketch=0;" edge="1" parent="1" source="jhilTtokQsTLJwIkljfX-28">
          <mxGeometry relative="1" as="geometry">
            <mxPoint x="515" y="580" as="sourcePoint" />
            <mxPoint x="405" y="550" as="targetPoint" />
          </mxGeometry>
        </mxCell>
        <mxCell id="jhilTtokQsTLJwIkljfX-27" value="" style="rounded=0;orthogonalLoop=1;jettySize=auto;html=1;endArrow=oval;endFill=0;sketch=0;sourcePerimeterSpacing=0;targetPerimeterSpacing=0;endSize=10;exitX=0.5;exitY=0;exitDx=0;exitDy=0;" edge="1" target="jhilTtokQsTLJwIkljfX-28" parent="1" source="jhilTtokQsTLJwIkljfX-1">
          <mxGeometry relative="1" as="geometry">
            <mxPoint x="390" y="565" as="sourcePoint" />
          </mxGeometry>
        </mxCell>
        <mxCell id="jhilTtokQsTLJwIkljfX-29" value="" style="rounded=0;orthogonalLoop=1;jettySize=auto;html=1;endArrow=halfCircle;endFill=0;endSize=6;strokeWidth=1;sketch=0;" edge="1" parent="1" source="jhilTtokQsTLJwIkljfX-31" target="jhilTtokQsTLJwIkljfX-28">
          <mxGeometry relative="1" as="geometry">
            <mxPoint x="515" y="580" as="sourcePoint" />
            <mxPoint x="405" y="550" as="targetPoint" />
          </mxGeometry>
        </mxCell>
        <mxCell id="jhilTtokQsTLJwIkljfX-28" value="" style="ellipse;whiteSpace=wrap;html=1;align=center;aspect=fixed;fillColor=none;strokeColor=none;resizable=0;perimeter=centerPerimeter;rotatable=0;allowArrows=0;points=[];outlineConnect=1;" vertex="1" parent="1">
          <mxGeometry x="395" y="550" width="10" height="10" as="geometry" />
        </mxCell>
        <mxCell id="jhilTtokQsTLJwIkljfX-30" value="" style="rounded=0;orthogonalLoop=1;jettySize=auto;html=1;endArrow=halfCircle;endFill=0;endSize=6;strokeWidth=1;sketch=0;fontSize=12;curved=1;exitX=1;exitY=0.883;exitDx=0;exitDy=0;exitPerimeter=0;" edge="1" target="jhilTtokQsTLJwIkljfX-31" parent="1" source="jhilTtokQsTLJwIkljfX-2">
          <mxGeometry relative="1" as="geometry">
            <mxPoint x="305" y="365" as="sourcePoint" />
          </mxGeometry>
        </mxCell>
        <mxCell id="jhilTtokQsTLJwIkljfX-32" value="" style="rounded=0;orthogonalLoop=1;jettySize=auto;html=1;endArrow=halfCircle;endFill=0;endSize=6;strokeWidth=1;sketch=0;" edge="1" parent="1" target="jhilTtokQsTLJwIkljfX-31">
          <mxGeometry relative="1" as="geometry">
            <mxPoint x="510" y="450" as="sourcePoint" />
            <mxPoint x="410" y="375" as="targetPoint" />
          </mxGeometry>
        </mxCell>
        <mxCell id="jhilTtokQsTLJwIkljfX-31" value="" style="ellipse;whiteSpace=wrap;html=1;align=center;aspect=fixed;fillColor=none;strokeColor=none;resizable=0;perimeter=centerPerimeter;rotatable=0;allowArrows=0;points=[];outlineConnect=1;" vertex="1" parent="1">
          <mxGeometry x="395" y="550" width="10" height="10" as="geometry" />
        </mxCell>
        <mxCell id="jhilTtokQsTLJwIkljfX-33" value="&lt;div&gt;IUsers&lt;/div&gt;" style="text;html=1;strokeColor=none;fillColor=none;align=center;verticalAlign=middle;whiteSpace=wrap;rounded=0;" vertex="1" parent="1">
          <mxGeometry x="400" y="560" width="60" height="30" as="geometry" />
        </mxCell>
        <mxCell id="jhilTtokQsTLJwIkljfX-34" value="Game Management App" style="rounded=0;whiteSpace=wrap;html=1;" vertex="1" parent="1">
          <mxGeometry x="350" y="270" width="120" height="60" as="geometry" />
        </mxCell>
        <mxCell id="jhilTtokQsTLJwIkljfX-35" value="" style="rounded=0;orthogonalLoop=1;jettySize=auto;html=1;endArrow=halfCircle;endFill=0;endSize=6;strokeWidth=1;sketch=0;exitX=0.5;exitY=1;exitDx=0;exitDy=0;" edge="1" parent="1" source="jhilTtokQsTLJwIkljfX-17">
          <mxGeometry relative="1" as="geometry">
            <mxPoint x="290" y="375" as="sourcePoint" />
            <mxPoint x="250" y="370" as="targetPoint" />
          </mxGeometry>
        </mxCell>
        <mxCell id="jhilTtokQsTLJwIkljfX-36" value="" style="rounded=0;orthogonalLoop=1;jettySize=auto;html=1;endArrow=oval;endFill=0;sketch=0;sourcePerimeterSpacing=0;targetPerimeterSpacing=0;endSize=10;exitX=0.5;exitY=0;exitDx=0;exitDy=0;" edge="1" target="jhilTtokQsTLJwIkljfX-37" parent="1" source="jhilTtokQsTLJwIkljfX-2">
          <mxGeometry relative="1" as="geometry">
            <mxPoint x="250" y="375" as="sourcePoint" />
          </mxGeometry>
        </mxCell>
        <mxCell id="jhilTtokQsTLJwIkljfX-37" value="" style="ellipse;whiteSpace=wrap;html=1;align=center;aspect=fixed;fillColor=none;strokeColor=none;resizable=0;perimeter=centerPerimeter;rotatable=0;allowArrows=0;points=[];outlineConnect=1;" vertex="1" parent="1">
          <mxGeometry x="245" y="370" width="10" height="10" as="geometry" />
        </mxCell>
        <mxCell id="jhilTtokQsTLJwIkljfX-38" value="" style="rounded=0;orthogonalLoop=1;jettySize=auto;html=1;endArrow=halfCircle;endFill=0;endSize=6;strokeWidth=1;sketch=0;exitX=0.5;exitY=1;exitDx=0;exitDy=0;" edge="1" target="jhilTtokQsTLJwIkljfX-40" parent="1" source="jhilTtokQsTLJwIkljfX-18">
          <mxGeometry relative="1" as="geometry">
            <mxPoint x="590" y="365" as="sourcePoint" />
          </mxGeometry>
        </mxCell>
        <mxCell id="jhilTtokQsTLJwIkljfX-39" value="" style="rounded=0;orthogonalLoop=1;jettySize=auto;html=1;endArrow=oval;endFill=0;sketch=0;sourcePerimeterSpacing=0;targetPerimeterSpacing=0;endSize=10;" edge="1" target="jhilTtokQsTLJwIkljfX-40" parent="1">
          <mxGeometry relative="1" as="geometry">
            <mxPoint x="570" y="400" as="sourcePoint" />
          </mxGeometry>
        </mxCell>
        <mxCell id="jhilTtokQsTLJwIkljfX-40" value="" style="ellipse;whiteSpace=wrap;html=1;align=center;aspect=fixed;fillColor=none;strokeColor=none;resizable=0;perimeter=centerPerimeter;rotatable=0;allowArrows=0;points=[];outlineConnect=1;" vertex="1" parent="1">
          <mxGeometry x="565" y="360" width="10" height="10" as="geometry" />
        </mxCell>
        <mxCell id="jhilTtokQsTLJwIkljfX-41" value="" style="rounded=0;orthogonalLoop=1;jettySize=auto;html=1;endArrow=halfCircle;endFill=0;endSize=6;strokeWidth=1;sketch=0;fontSize=12;curved=1;" edge="1" target="jhilTtokQsTLJwIkljfX-42" parent="1">
          <mxGeometry relative="1" as="geometry">
            <mxPoint x="410" y="375" as="sourcePoint" />
          </mxGeometry>
        </mxCell>
        <mxCell id="jhilTtokQsTLJwIkljfX-42" value="" style="ellipse;whiteSpace=wrap;html=1;align=center;aspect=fixed;fillColor=none;strokeColor=none;resizable=0;perimeter=centerPerimeter;rotatable=0;allowArrows=0;points=[];outlineConnect=1;" vertex="1" parent="1">
          <mxGeometry x="255" y="370" width="10" height="10" as="geometry" />
        </mxCell>
        <mxCell id="jhilTtokQsTLJwIkljfX-43" value="" style="endArrow=none;html=1;rounded=0;entryX=0.5;entryY=1;entryDx=0;entryDy=0;" edge="1" parent="1" target="jhilTtokQsTLJwIkljfX-34">
          <mxGeometry width="50" height="50" relative="1" as="geometry">
            <mxPoint x="410" y="380" as="sourcePoint" />
            <mxPoint x="490" y="350" as="targetPoint" />
          </mxGeometry>
        </mxCell>
        <mxCell id="jhilTtokQsTLJwIkljfX-44" value="" style="rounded=0;orthogonalLoop=1;jettySize=auto;html=1;endArrow=halfCircle;endFill=0;endSize=6;strokeWidth=1;sketch=0;fontSize=12;curved=1;" edge="1" parent="1">
          <mxGeometry relative="1" as="geometry">
            <mxPoint x="410" y="380" as="sourcePoint" />
            <mxPoint x="560" y="370" as="targetPoint" />
          </mxGeometry>
        </mxCell>
        <mxCell id="jhilTtokQsTLJwIkljfX-45" value="" style="ellipse;whiteSpace=wrap;html=1;align=center;aspect=fixed;fillColor=none;strokeColor=none;resizable=0;perimeter=centerPerimeter;rotatable=0;allowArrows=0;points=[];outlineConnect=1;" vertex="1" parent="1">
          <mxGeometry x="440" y="380" width="10" height="10" as="geometry" />
        </mxCell>
        <mxCell id="jhilTtokQsTLJwIkljfX-46" value="IGameService" style="text;html=1;strokeColor=none;fillColor=none;align=center;verticalAlign=middle;whiteSpace=wrap;rounded=0;" vertex="1" parent="1">
          <mxGeometry x="160" y="360" width="80" height="30" as="geometry" />
        </mxCell>
        <mxCell id="jhilTtokQsTLJwIkljfX-47" value="IEventMgmt" style="text;html=1;strokeColor=none;fillColor=none;align=center;verticalAlign=middle;whiteSpace=wrap;rounded=0;" vertex="1" parent="1">
          <mxGeometry x="575" y="370" width="60" height="30" as="geometry" />
        </mxCell>
        <mxCell id="jhilTtokQsTLJwIkljfX-55" value="Game View" style="rounded=0;whiteSpace=wrap;html=1;" vertex="1" parent="1">
          <mxGeometry x="190" y="150" width="120" height="60" as="geometry" />
        </mxCell>
        <mxCell id="jhilTtokQsTLJwIkljfX-57" value="" style="endArrow=none;html=1;rounded=0;entryX=0.5;entryY=1;entryDx=0;entryDy=0;" edge="1" parent="1" target="jhilTtokQsTLJwIkljfX-55">
          <mxGeometry width="50" height="50" relative="1" as="geometry">
            <mxPoint x="250" y="270" as="sourcePoint" />
            <mxPoint x="300" y="220" as="targetPoint" />
          </mxGeometry>
        </mxCell>
        <mxCell id="jhilTtokQsTLJwIkljfX-58" value="" style="endArrow=none;html=1;rounded=0;" edge="1" parent="1">
          <mxGeometry width="50" height="50" relative="1" as="geometry">
            <mxPoint x="570" y="270" as="sourcePoint" />
            <mxPoint x="570" y="210" as="targetPoint" />
          </mxGeometry>
        </mxCell>
        <mxCell id="jhilTtokQsTLJwIkljfX-61" value="" style="group" vertex="1" connectable="0" parent="1">
          <mxGeometry x="660" y="340" width="180" height="160" as="geometry" />
        </mxCell>
        <mxCell id="jhilTtokQsTLJwIkljfX-5" value="Payment&lt;br&gt;&lt;div&gt;Provider&lt;/div&gt;" style="ellipse;shape=cloud;whiteSpace=wrap;html=1;" vertex="1" parent="jhilTtokQsTLJwIkljfX-61">
          <mxGeometry x="40" y="60" width="120" height="80" as="geometry" />
        </mxCell>
        <mxCell id="jhilTtokQsTLJwIkljfX-15" value="" style="endArrow=none;dashed=1;html=1;dashPattern=1 3;strokeWidth=2;rounded=0;" edge="1" parent="jhilTtokQsTLJwIkljfX-61">
          <mxGeometry width="50" height="50" relative="1" as="geometry">
            <mxPoint y="160" as="sourcePoint" />
            <mxPoint y="20" as="targetPoint" />
          </mxGeometry>
        </mxCell>
        <mxCell id="jhilTtokQsTLJwIkljfX-16" value="" style="endArrow=none;dashed=1;html=1;dashPattern=1 3;strokeWidth=2;rounded=0;" edge="1" parent="jhilTtokQsTLJwIkljfX-61">
          <mxGeometry width="50" height="50" relative="1" as="geometry">
            <mxPoint y="20" as="sourcePoint" />
            <mxPoint x="180" y="20" as="targetPoint" />
          </mxGeometry>
        </mxCell>
        <mxCell id="jhilTtokQsTLJwIkljfX-21" value="" style="rounded=0;orthogonalLoop=1;jettySize=auto;html=1;endArrow=oval;endFill=0;sketch=0;sourcePerimeterSpacing=0;targetPerimeterSpacing=0;endSize=10;exitX=0.07;exitY=0.4;exitDx=0;exitDy=0;exitPerimeter=0;" edge="1" parent="jhilTtokQsTLJwIkljfX-61" source="jhilTtokQsTLJwIkljfX-5">
          <mxGeometry relative="1" as="geometry">
            <mxPoint x="-30" y="-45" as="sourcePoint" />
            <mxPoint x="10" y="90" as="targetPoint" />
          </mxGeometry>
        </mxCell>
        <mxCell id="jhilTtokQsTLJwIkljfX-22" value="" style="ellipse;whiteSpace=wrap;html=1;align=center;aspect=fixed;fillColor=none;strokeColor=none;resizable=0;perimeter=centerPerimeter;rotatable=0;allowArrows=0;points=[];outlineConnect=1;" vertex="1" parent="jhilTtokQsTLJwIkljfX-61">
          <mxGeometry x="10" width="10" height="10" as="geometry" />
        </mxCell>
        <mxCell id="jhilTtokQsTLJwIkljfX-25" value="&lt;div&gt;IPayment&lt;/div&gt;" style="text;html=1;strokeColor=none;fillColor=none;align=center;verticalAlign=middle;whiteSpace=wrap;rounded=0;" vertex="1" parent="jhilTtokQsTLJwIkljfX-61">
          <mxGeometry y="60" width="60" height="30" as="geometry" />
        </mxCell>
        <mxCell id="jhilTtokQsTLJwIkljfX-62" value="&lt;div&gt;Game Management&lt;/div&gt;&lt;div&gt;View&lt;br&gt;&lt;/div&gt;" style="rounded=0;whiteSpace=wrap;html=1;" vertex="1" parent="1">
          <mxGeometry x="350" y="150" width="120" height="60" as="geometry" />
        </mxCell>
        <mxCell id="jhilTtokQsTLJwIkljfX-56" value="Event View" style="rounded=0;whiteSpace=wrap;html=1;" vertex="1" parent="1">
          <mxGeometry x="510" y="150" width="120" height="60" as="geometry" />
        </mxCell>
        <mxCell id="jhilTtokQsTLJwIkljfX-63" value="" style="endArrow=none;html=1;rounded=0;entryX=0.5;entryY=1;entryDx=0;entryDy=0;" edge="1" parent="1" target="jhilTtokQsTLJwIkljfX-62">
          <mxGeometry width="50" height="50" relative="1" as="geometry">
            <mxPoint x="410" y="270" as="sourcePoint" />
            <mxPoint x="460" y="220" as="targetPoint" />
          </mxGeometry>
        </mxCell>
        <mxCell id="jhilTtokQsTLJwIkljfX-64" value="" style="group" vertex="1" connectable="0" parent="1">
          <mxGeometry x="120" y="30" width="250" height="170" as="geometry" />
        </mxCell>
        <mxCell id="jhilTtokQsTLJwIkljfX-51" value="Architekt" style="shape=umlActor;verticalLabelPosition=bottom;verticalAlign=top;html=1;outlineConnect=0;" vertex="1" parent="jhilTtokQsTLJwIkljfX-64">
          <mxGeometry y="110" width="30" height="60" as="geometry" />
        </mxCell>
        <mxCell id="jhilTtokQsTLJwIkljfX-52" value="" style="whiteSpace=wrap;html=1;shape=mxgraph.basic.cloud_callout" vertex="1" parent="jhilTtokQsTLJwIkljfX-64">
          <mxGeometry x="30" width="220" height="120" as="geometry" />
        </mxCell>
        <mxCell id="jhilTtokQsTLJwIkljfX-53" value="Zadanie utworzenia widoków zostawiam jako zadanie dla czytelnika (pref. z działu UI/UX)" style="text;html=1;strokeColor=none;fillColor=none;align=center;verticalAlign=middle;whiteSpace=wrap;rounded=0;" vertex="1" parent="jhilTtokQsTLJwIkljfX-64">
          <mxGeometry x="60" y="40" width="160" height="30" as="geometry" />
        </mxCell>
      </root>
    </mxGraphModel>
  </diagram>
</mxfile>
